<?xml version="1.0" encoding="UTF-8"?>
<!DOCTYPE svg PUBLIC "-//W3C//DTD SVG 1.1//EN" "http://www.w3.org/Graphics/SVG/1.1/DTD/svg11.dtd">
<!-- Creator: CorelDRAW X8 -->
<svg xmlns="http://www.w3.org/2000/svg" xml:space="preserve" width="357.187mm" height="105.833mm" version="1.1" style="shape-rendering:geometricPrecision; text-rendering:geometricPrecision; image-rendering:optimizeQuality; fill-rule:evenodd; clip-rule:evenodd"
viewBox="0 0 35719 10583"
 xmlns:xlink="http://www.w3.org/1999/xlink">
 <defs>
  <style type="text/css">
   <![CDATA[
    .fil0 {fill:#F8F9FA}
   ]]>
  </style>
 </defs>
 <g id="Ebene_x0020_1">
  <metadata id="CorelCorpID_0Corel-Layer"/>
  <g id="_2821921565248">
   <path class="fil0" d="M221 6276c148,-41 549,-364 691,-464 753,-529 1491,-830 2406,-1091 597,-171 1316,-296 2000,-293 729,4 1363,146 2020,288 744,161 1264,253 1889,-112 335,-195 1018,-698 1391,-952 228,-156 475,-312 716,-454l1116 -637c2656,-1415 5658,-2167 8989,-1750 2023,253 3676,813 5532,1407 295,94 583,195 866,297l631 241c69,29 135,68 198,94 -274,321 -1443,174 -1835,104 -1340,-241 -2047,-592 -3248,-1043 -428,-160 -1203,-437 -1723,-439 152,269 3203,1405 3383,1698 -1862,134 -3765,173 -5603,390 -904,106 -1834,156 -2735,274 -448,58 -2344,220 -2614,386 422,71 1807,58 2303,57 633,-1 1694,-18 2309,-61 1080,-77 2301,-26 3411,-135 329,-32 830,-58 1157,-36 -67,131 -407,304 -610,476 -176,149 -393,380 -530,567l-931 1269c-639,856 -1209,1606 -2292,2084 -1458,643 -3085,607 -4760,607 -926,0 -1111,26 -2011,130 -232,27 -705,43 -886,203 2784,215 6906,1392 9283,-434 1541,-1185 1821,-2785 3572,-3826 1647,-980 3862,-1267 5796,-1477 560,-61 1185,-50 1750,-22 840,42 1289,305 1500,318l-672 -487c74,-114 229,-95 395,-120 339,-52 1141,-156 1375,54 -63,316 -479,406 -498,1613 -20,1318 545,2695 56,3787 -181,403 -568,955 -1105,967 25,-1290 201,-1931 -521,-3063 -228,-358 -553,-679 -874,-927 -1671,-1289 -3701,-763 -4917,775 -192,243 -538,855 -534,1298 215,-257 233,-721 845,-1372 811,-861 1984,-1288 3181,-977 1053,273 1895,1106 2251,2162 219,651 245,1236 53,1930 -57,208 -270,744 -61,866 264,153 643,7 870,-98 456,-212 919,-601 1201,-1017 831,-1226 466,-2175 204,-3670 -119,-679 -81,-1422 260,-1871 82,-107 164,-183 246,-296 76,-104 140,-253 114,-436 -15,-106 -47,-112 -130,-149 -61,-27 -139,-51 -214,-58 -338,-33 -944,155 -1404,213 -341,42 -674,44 -1016,69 -1161,83 -2613,-300 -3699,-633 -556,-171 -1088,-379 -1639,-556 -2260,-726 -4556,-1479 -6976,-1713 -2822,-272 -5187,67 -7433,1040 -1649,715 -2837,1624 -4287,2282 -1158,526 -2317,118 -3913,426 -1074,208 -2233,639 -3099,1267 -390,283 -573,415 -911,753l-279 277z"/>
   <path class="fil0" d="M1168 9123c121,-434 19,-597 327,-1270 328,-718 891,-1257 1568,-1569 330,-152 854,-283 1296,-244 667,60 1190,258 1688,643 167,129 275,228 420,364 836,785 912,1826 1120,2057 275,-448 -61,-1567 -362,-2084 -344,-589 -780,-974 -1377,-1252 -1259,-587 -2895,-217 -3820,801 -258,285 -507,639 -676,1084 -86,226 -391,1252 -184,1470z"/>
  </g>
 </g>
</svg>
